<svg xmlns="http://www.w3.org/2000/svg" viewBox="0 0 100 100"><g fill="none" fill-rule="evenodd"><path d="M85.349 14.636C94.401 23.687 100 36.187 100 49.996c0 27.616-22.387 50.003-50 50.003-13.807 0-26.305-5.596-35.354-14.646" fill="#E49977"/><path d="M14.646 85.353C5.597 76.306 0 63.804 0 49.997 0 22.384 22.387 0 50 0c13.802 0 26.301 5.594 35.349 14.637" fill="#C1D7E9"/><path d="M14.125 33.956a13.55 13.55 0 0 1 3.401-9.14c1.1-1.084 2.007-2.319 3.173-3.344 2.571-2.28 6.42-2.432 9.516-3.869.181-1.443.77-2.887.414-4.343-.109-.485-.27-.975.02-1.438.813-1.673.113-3.49.258-5.233.108-.91.04-2.026 1.01-2.589.227 1.897 1.007 3.661 1.639 5.46.292 1.403.292 2.863.968 4.185-.43 1.34.42 2.468 1.338 3.457 2.033.93 4.449 1.152 6.217 2.516 1.26.957 2.622 1.795 4.032 2.573 1.058 1.184 2.23 2.325 2.701 3.82 1.892 2.042 2.115 4.783 3.188 7.174.02 3.55-.785 7.374-3.322 10.22-1.815 1.34-3.083 3.14-4.896 4.48-1.74.93-3.596 1.692-5.393 2.527-1.17.245-2.38.365-3.544.65-.945 4.352-1.59 8.809-3.487 12.938-.63-1.695-.553-3.512-1.096-5.224-.766-2.532.805-5.167-.08-7.653-1.327-1.06-3.54-.372-5.013-1.283-2.802-1.544-5.768-3.049-7.801-5.412-.757-1.358-2.346-2.374-2.346-4.003-.013-2.194-1.445-4.25-.897-6.47ZM35.899 46c1.714-.393 3.31-1.167 4.746-2.111 1.547-.972 2.124-2.786 3.65-3.782 1.429-1.608 1.12-3.806 1.705-5.712-.235-1.33-.511-2.649-.658-3.995-.697-1.066-1.772-1.917-2.07-3.201-1.023-1.381-2.577-2.337-3.826-3.534-.908-.989-2.354-.57-3.548-.61.118 1.09.212 2.22-.077 3.294-.141.662-.457 1.314-.35 2.005.24 1.472-.345 2.95.069 4.404.833 3.041-.076 6.113-.155 9.18.119 1.357.186 2.725.514 4.062Zm-15.023-5.57c1.27.775 2.354 1.724 3.463 2.65 1.928 1.142 3.834 2.35 6.128 2.92-.206-1.4-.408-2.842.113-4.214 1.28-3.098-.287-6.34-.553-9.473.234-1.863.011-3.85 1.01-5.566.13-1.289-.522-2.534-.962-3.747-1.516.518-2.943 1.217-4.204 2.116-1.524.978-3.858 1.61-4.2 3.434-.173 1.196-1.704 1.92-1.66 3.145.095 2.911-.374 5.956.865 8.735Zm66.999 24.526a13.55 13.55 0 0 0-3.401-9.14c-1.1-1.084-2.007-2.319-3.173-3.344-2.571-2.28-6.42-2.432-9.516-3.869-.181-1.443-.77-2.887-.414-4.343.109-.485.27-.975-.02-1.438-.813-1.673-.113-3.49-.258-5.233-.108-.91-.04-2.026-1.01-2.589-.227 1.897-1.007 3.661-1.639 5.46-.292 1.403-.292 2.863-.968 4.185.43 1.34-.42 2.468-1.338 3.457-2.033.93-4.449 1.152-6.217 2.516-1.26.957-2.622 1.795-4.032 2.573-1.058 1.184-2.23 2.325-2.701 3.82-1.892 2.042-2.115 4.783-3.188 7.174-.02 3.55.785 7.374 3.322 10.22 1.815 1.34 3.083 3.14 4.896 4.48 1.74.93 3.596 1.692 5.393 2.527 1.17.245 2.38.365 3.544.65.945 4.352 1.59 8.809 3.487 12.938.63-1.695.553-3.512 1.096-5.224.766-2.532-.805-5.167.08-7.653 1.327-1.06 3.54-.372 5.013-1.283 2.802-1.544 5.768-3.049 7.801-5.412.757-1.358 2.346-2.374 2.346-4.003.013-2.194 1.445-4.25.897-6.47ZM66.101 77c-1.714-.393-3.31-1.167-4.746-2.111-1.547-.972-2.124-2.786-3.65-3.782-1.429-1.608-1.12-3.806-1.705-5.712.235-1.33.511-2.649.658-3.995.697-1.066 1.772-1.917 2.07-3.201 1.023-1.381 2.577-2.337 3.826-3.534.908-.989 2.354-.57 3.548-.61-.118 1.09-.212 2.22.077 3.294.141.662.457 1.314.35 2.005-.24 1.472.345 2.95-.069 4.404-.833 3.041.076 6.113.155 9.18-.119 1.357-.186 2.725-.514 4.062Zm15.023-5.57c-1.27.775-2.354 1.724-3.463 2.65-1.928 1.142-3.834 2.35-6.128 2.92.206-1.4.408-2.842-.113-4.214-1.28-3.098.287-6.34.553-9.473-.234-1.863-.011-3.85-1.01-5.566-.13-1.289.522-2.534.962-3.747 1.516.518 2.943 1.217 4.204 2.116 1.524.978 3.858 1.61 4.2 3.434.173 1.196 1.704 1.92 1.66 3.145-.095 2.911.374 5.956-.865 8.735Z" fill="#111212"/></g></svg>
